<!DOCTYPE svg PUBLIC "-//W3C//DTD SVG 1.1//EN" "http://www.w3.org/Graphics/SVG/1.1/DTD/svg11.dtd">

<!-- Uploaded to: SVG Repo, www.svgrepo.com, Transformed by: SVG Repo Mixer Tools -->
<svg fill="#8c2cc4" height="800px" width="800px" version="1.1" id="Capa_1" xmlns="http://www.w3.org/2000/svg" xmlns:xlink="http://www.w3.org/1999/xlink" viewBox="0 0 28.048 28.048" xml:space="preserve">

<g id="SVGRepo_bgCarrier" stroke-width="0"/>

<g id="SVGRepo_tracerCarrier" stroke-linecap="round" stroke-linejoin="round"/>

<g id="SVGRepo_iconCarrier"> <g> <path d="M25.818,0.433H2.229C0.995,0.433,0,1.451,0,2.699v22.654c0,1.25,0.995,2.262,2.229,2.262h23.589 c1.229,0,2.23-1.012,2.23-2.262V2.699C28.049,1.451,27.047,0.433,25.818,0.433z M3.642,2.06h20.765 c1.082,0,1.963,0.895,1.963,1.994V8.54H1.678V4.054C1.678,2.954,2.554,2.06,3.642,2.06z M18.979,10.796v15.193H8.911V10.796H18.979 z M1.678,23.995V10.796h5.06v15.193H3.642C2.554,25.99,1.678,25.097,1.678,23.995z M24.406,25.99h-3.251V10.796h5.214v13.199 C26.369,25.097,25.488,25.99,24.406,25.99z"/> <g> </g> <g> </g> <g> </g> <g> </g> <g> </g> <g> </g> <g> </g> <g> </g> <g> </g> <g> </g> <g> </g> <g> </g> <g> </g> <g> </g> <g> </g> </g> </g>

</svg>