<?xml version="1.0" encoding="UTF-8" standalone="no" ?>
<!DOCTYPE svg PUBLIC "-//W3C//DTD SVG 1.1//EN" "http://www.w3.org/Graphics/SVG/1.1/DTD/svg11.dtd">
<svg xmlns="http://www.w3.org/2000/svg" xmlns:xlink="http://www.w3.org/1999/xlink" version="1.1" width="400" height="400" viewBox="0 0 400 400" xml:space="preserve">
<desc>Created with Fabric.js 3.6.2</desc>
<defs>
</defs>
<g transform="matrix(0.39 0 0 0.39 200 200)"  >
<path style="stroke: none; stroke-width: 1; stroke-dasharray: none; stroke-linecap: butt; stroke-dashoffset: 0; stroke-linejoin: round; stroke-miterlimit: 2; fill: rgb(0,0,0); fill-rule: evenodd; opacity: 1;"  transform=" translate(-256, -256)" d="M 256 0 c 141.29 0 256 114.71 256 256 c 0 141.29 -114.71 256 -256 256 c -141.29 0 -256 -114.71 -256 -256 c 0 -141.29 114.71 -256 256 -256 Z m 121.527 134.844 c -30.646 -30.672 -71.401 -47.571 -114.822 -47.588 c -89.468 0 -162.284 72.788 -162.319 162.256 c -0.012 28.599 7.462 56.516 21.666 81.122 l -23.028 84.086 l 86.048 -22.564 c 23.708 12.927 50.401 19.739 77.568 19.751 l 0.067 0 c 89.459 0 162.281 -72.797 162.317 -162.266 c 0.017 -43.358 -16.851 -84.127 -47.497 -114.797 Z m -114.821 249.657 l -0.054 0 c -24.209 -0.01 -47.953 -6.511 -68.667 -18.799 l -4.927 -2.924 l -51.061 13.391 l 13.629 -49.769 l -3.208 -5.102 c -13.505 -21.473 -20.637 -46.293 -20.627 -71.776 c 0.03 -74.362 60.552 -134.861 134.969 -134.861 c 36.035 0.014 69.908 14.062 95.38 39.554 c 25.472 25.493 39.492 59.379 39.478 95.416 c -0.03 74.367 -60.551 134.869 -134.912 134.87 Z m 74.003 -101.01 c -4.056 -2.029 -23.996 -11.838 -27.715 -13.191 c -3.717 -1.353 -6.42 -2.03 -9.124 2.029 c -2.704 4.059 -10.477 13.192 -12.843 15.898 c -2.365 2.705 -4.731 3.045 -8.787 1.014 c -4.056 -2.028 -17.124 -6.31 -32.615 -20.124 c -12.057 -10.75 -20.197 -24.029 -22.563 -28.087 c -2.365 -4.059 -0.252 -6.253 1.779 -8.275 c 1.824 -1.816 4.055 -4.735 6.083 -7.103 c 2.028 -2.368 2.704 -4.059 4.056 -6.764 c 1.352 -2.707 0.676 -5.074 -0.338 -7.104 c -1.014 -2.029 -9.125 -21.986 -12.505 -30.104 c -3.291 -7.906 -6.635 -6.836 -9.125 -6.96 c -2.363 -0.118 -5.069 -0.143 -7.773 -0.143 c -2.704 0 -7.097 1.015 -10.816 5.074 c -3.717 4.059 -14.194 13.868 -14.194 33.824 c 0 19.957 14.533 39.236 16.561 41.943 c 2.028 2.706 28.599 43.659 69.284 61.221 c 9.676 4.177 17.231 6.672 23.121 8.541 c 9.716 3.085 18.557 2.65 25.546 1.606 c 7.792 -1.164 23.996 -9.809 27.375 -19.279 c 3.379 -9.471 3.379 -17.589 2.366 -19.28 c -1.014 -1.691 -3.718 -2.706 -7.773 -4.736 Z" stroke-linecap="round" />
</g>
</svg>